<svg width="4335" height="1975" viewBox="0 0 4335 1975" fill="none" xmlns="http://www.w3.org/2000/svg">
<rect width="4335" height="1975" fill="#0B1518"/>
<path d="M2095.99 987C2103.19 978.2 2109.66 966.667 2111.99 962L2087.99 950.5L2092.99 945.5C2151.79 975.5 2190.99 971 2237.99 945.5L2244.99 950.5L2221.99 962C2225.99 975.6 2234.33 984.333 2237.99 987C2245.99 989 2291.49 964 2309.49 950.5C2321.09 912.9 2295.49 815.5 2266.99 785C2259.79 779.4 2223.99 770.667 2206.99 767L2198.49 781.5C2186.89 778.7 2150.99 777 2133.49 781.5L2125.49 767L2078.99 779L2066.49 785C2023.29 835.8 2019.49 916.5 2022.99 950.5C2029.39 958.5 2074.99 982.5 2095.99 987Z" fill="#345696" stroke="black"/>
<ellipse cx="2118.99" cy="888" rx="26" ry="29.5" fill="white"/>
<ellipse cx="2214.99" cy="888" rx="26" ry="29.5" fill="white"/>
<path d="M1696.55 1174.91H1718.73V1239.27C1718.7 1245.3 1717.26 1250.58 1714.41 1255.09C1711.57 1259.58 1707.63 1263.06 1702.6 1265.55C1697.6 1268.03 1691.81 1269.27 1685.23 1269.27C1679.41 1269.27 1674.13 1268.26 1669.37 1266.23C1664.64 1264.2 1660.87 1261.05 1658.05 1256.77C1655.26 1252.5 1653.88 1247.03 1653.91 1240.36H1676.32C1676.41 1242.76 1676.87 1244.8 1677.69 1246.5C1678.54 1248.17 1679.7 1249.42 1681.19 1250.27C1682.67 1251.12 1684.45 1251.55 1686.51 1251.55C1688.66 1251.55 1690.48 1251.09 1691.96 1250.18C1693.45 1249.24 1694.57 1247.86 1695.32 1246.05C1696.11 1244.23 1696.52 1241.97 1696.55 1239.27V1174.91ZM1765.45 1269.32C1758.12 1269.32 1751.81 1267.82 1746.54 1264.82C1741.3 1261.79 1737.25 1257.58 1734.4 1252.18C1731.59 1246.76 1730.18 1240.47 1730.18 1233.32C1730.18 1226.14 1731.59 1219.85 1734.4 1214.45C1737.25 1209.03 1741.3 1204.82 1746.54 1201.82C1751.81 1198.79 1758.12 1197.27 1765.45 1197.27C1772.78 1197.27 1779.07 1198.79 1784.31 1201.82C1789.59 1204.82 1793.63 1209.03 1796.45 1214.45C1799.3 1219.85 1800.72 1226.14 1800.72 1233.32C1800.72 1240.47 1799.3 1246.76 1796.45 1252.18C1793.63 1257.58 1789.59 1261.79 1784.31 1264.82C1779.07 1267.82 1772.78 1269.32 1765.45 1269.32ZM1765.59 1252.55C1768.25 1252.55 1770.51 1251.73 1772.36 1250.09C1774.21 1248.45 1775.62 1246.18 1776.59 1243.27C1777.59 1240.36 1778.09 1237 1778.09 1233.18C1778.09 1229.3 1777.59 1225.91 1776.59 1223C1775.62 1220.09 1774.21 1217.82 1772.36 1216.18C1770.51 1214.55 1768.25 1213.73 1765.59 1213.73C1762.83 1213.73 1760.49 1214.55 1758.59 1216.18C1756.71 1217.82 1755.27 1220.09 1754.27 1223C1753.3 1225.91 1752.81 1229.3 1752.81 1233.18C1752.81 1237 1753.3 1240.36 1754.27 1243.27C1755.27 1246.18 1756.71 1248.45 1758.59 1250.09C1760.49 1251.73 1762.83 1252.55 1765.59 1252.55ZM1812.11 1268V1198.18H1834.34V1268H1812.11ZM1823.24 1190.05C1820.12 1190.05 1817.44 1189.02 1815.2 1186.95C1812.96 1184.86 1811.84 1182.35 1811.84 1179.41C1811.84 1176.5 1812.96 1174.02 1815.2 1171.95C1817.44 1169.86 1820.12 1168.82 1823.24 1168.82C1826.4 1168.82 1829.08 1169.86 1831.29 1171.95C1833.53 1174.02 1834.65 1176.5 1834.65 1179.41C1834.65 1182.35 1833.53 1184.86 1831.29 1186.95C1829.08 1189.02 1826.4 1190.05 1823.24 1190.05ZM1870.71 1228.18V1268H1848.48V1198.18H1869.62V1211H1870.39C1871.94 1206.73 1874.57 1203.38 1878.3 1200.95C1882.03 1198.5 1886.47 1197.27 1891.62 1197.27C1896.53 1197.27 1900.79 1198.38 1904.39 1200.59C1908.03 1202.77 1910.85 1205.83 1912.85 1209.77C1914.88 1213.68 1915.88 1218.26 1915.85 1223.5V1268H1893.62V1227.86C1893.65 1223.98 1892.66 1220.95 1890.66 1218.77C1888.7 1216.59 1885.95 1215.5 1882.44 1215.5C1880.1 1215.5 1878.04 1216.02 1876.26 1217.05C1874.5 1218.05 1873.13 1219.48 1872.16 1221.36C1871.23 1223.24 1870.74 1225.52 1870.71 1228.18ZM1989.7 1269.32C1982.37 1269.32 1976.06 1267.82 1970.79 1264.82C1965.55 1261.79 1961.5 1257.58 1958.65 1252.18C1955.84 1246.76 1954.43 1240.47 1954.43 1233.32C1954.43 1226.14 1955.84 1219.85 1958.65 1214.45C1961.5 1209.03 1965.55 1204.82 1970.79 1201.82C1976.06 1198.79 1982.37 1197.27 1989.7 1197.27C1997.03 1197.27 2003.32 1198.79 2008.56 1201.82C2013.84 1204.82 2017.88 1209.03 2020.7 1214.45C2023.55 1219.85 2024.97 1226.14 2024.97 1233.32C2024.97 1240.47 2023.55 1246.76 2020.7 1252.18C2017.88 1257.58 2013.84 1261.79 2008.56 1264.82C2003.32 1267.82 1997.03 1269.32 1989.7 1269.32ZM1989.84 1252.55C1992.5 1252.55 1994.76 1251.73 1996.61 1250.09C1998.46 1248.45 1999.87 1246.18 2000.84 1243.27C2001.84 1240.36 2002.34 1237 2002.34 1233.18C2002.34 1229.3 2001.84 1225.91 2000.84 1223C1999.87 1220.09 1998.46 1217.82 1996.61 1216.18C1994.76 1214.55 1992.5 1213.73 1989.84 1213.73C1987.08 1213.73 1984.74 1214.55 1982.84 1216.18C1980.96 1217.82 1979.52 1220.09 1978.52 1223C1977.55 1225.91 1977.06 1229.3 1977.06 1233.18C1977.06 1237 1977.55 1240.36 1978.52 1243.27C1979.52 1246.18 1980.96 1248.45 1982.84 1250.09C1984.74 1251.73 1987.08 1252.55 1989.84 1252.55ZM2081.4 1237.86V1198.18H2103.59V1268H2082.4V1255H2081.68C2080.13 1259.27 2077.49 1262.67 2073.77 1265.18C2070.07 1267.67 2065.6 1268.91 2060.36 1268.91C2055.6 1268.91 2051.42 1267.82 2047.81 1265.64C2044.21 1263.45 2041.4 1260.41 2039.4 1256.5C2037.4 1252.56 2036.39 1247.95 2036.36 1242.68V1198.18H2058.59V1238.32C2058.62 1242.11 2059.62 1245.09 2061.59 1247.27C2063.55 1249.45 2066.24 1250.55 2069.63 1250.55C2071.84 1250.55 2073.83 1250.06 2075.59 1249.09C2077.37 1248.09 2078.78 1246.65 2079.81 1244.77C2080.87 1242.86 2081.4 1240.56 2081.4 1237.86ZM2117.73 1268V1198.18H2139.32V1210.91H2140.05C2141.32 1206.3 2143.4 1202.88 2146.28 1200.64C2149.16 1198.36 2152.51 1197.23 2156.32 1197.23C2157.35 1197.23 2158.41 1197.3 2159.51 1197.45C2160.6 1197.58 2161.61 1197.77 2162.55 1198.05V1217.36C2161.49 1217 2160.1 1216.71 2158.37 1216.5C2156.67 1216.29 2155.16 1216.18 2153.82 1216.18C2151.19 1216.18 2148.81 1216.77 2146.69 1217.95C2144.6 1219.11 2142.95 1220.73 2141.73 1222.82C2140.55 1224.88 2139.96 1227.3 2139.96 1230.09V1268H2117.73ZM2233.52 1268H2199.11V1174.91H2233.47C2242.96 1174.91 2251.12 1176.77 2257.97 1180.5C2264.85 1184.2 2270.15 1189.53 2273.88 1196.5C2277.61 1203.44 2279.47 1211.74 2279.47 1221.41C2279.47 1231.11 2277.61 1239.44 2273.88 1246.41C2270.18 1253.38 2264.9 1258.73 2258.02 1262.45C2251.14 1266.15 2242.97 1268 2233.52 1268ZM2221.61 1248.82H2232.65C2237.87 1248.82 2242.27 1247.94 2245.88 1246.18C2249.52 1244.39 2252.26 1241.5 2254.11 1237.5C2255.99 1233.47 2256.93 1228.11 2256.93 1221.41C2256.93 1214.71 2255.99 1209.38 2254.11 1205.41C2252.23 1201.41 2249.46 1198.53 2245.79 1196.77C2242.15 1194.98 2237.67 1194.09 2232.34 1194.09H2221.61V1248.82ZM2292.61 1268V1198.18H2314.84V1268H2292.61ZM2303.74 1190.05C2300.62 1190.05 2297.94 1189.02 2295.7 1186.95C2293.46 1184.86 2292.34 1182.35 2292.34 1179.41C2292.34 1176.5 2293.46 1174.02 2295.7 1171.95C2297.94 1169.86 2300.62 1168.82 2303.74 1168.82C2306.9 1168.82 2309.58 1169.86 2311.79 1171.95C2314.03 1174.02 2315.15 1176.5 2315.15 1179.41C2315.15 1182.35 2314.03 1184.86 2311.79 1186.95C2309.58 1189.02 2306.9 1190.05 2303.74 1190.05ZM2389.94 1219.5L2369.53 1220.05C2369.32 1218.59 2368.74 1217.3 2367.8 1216.18C2366.86 1215.03 2365.63 1214.14 2364.12 1213.5C2362.63 1212.83 2360.91 1212.5 2358.94 1212.5C2356.36 1212.5 2354.16 1213.02 2352.35 1214.05C2350.56 1215.08 2349.68 1216.47 2349.71 1218.23C2349.68 1219.59 2350.23 1220.77 2351.35 1221.77C2352.5 1222.77 2354.54 1223.58 2357.48 1224.18L2370.94 1226.73C2377.91 1228.06 2383.09 1230.27 2386.48 1233.36C2389.91 1236.45 2391.63 1240.55 2391.66 1245.64C2391.63 1250.42 2390.21 1254.59 2387.39 1258.14C2384.6 1261.68 2380.79 1264.44 2375.94 1266.41C2371.09 1268.35 2365.54 1269.32 2359.3 1269.32C2349.33 1269.32 2341.47 1267.27 2335.71 1263.18C2329.98 1259.06 2326.71 1253.55 2325.89 1246.64L2347.85 1246.09C2348.33 1248.64 2349.59 1250.58 2351.62 1251.91C2353.65 1253.24 2356.24 1253.91 2359.39 1253.91C2362.24 1253.91 2364.56 1253.38 2366.35 1252.32C2368.13 1251.26 2369.04 1249.85 2369.07 1248.09C2369.04 1246.52 2368.35 1245.26 2366.98 1244.32C2365.62 1243.35 2363.48 1242.59 2360.57 1242.05L2348.39 1239.73C2341.39 1238.45 2336.18 1236.11 2332.76 1232.68C2329.33 1229.23 2327.63 1224.83 2327.66 1219.5C2327.63 1214.83 2328.88 1210.85 2331.39 1207.55C2333.91 1204.21 2337.48 1201.67 2342.12 1199.91C2346.76 1198.15 2352.23 1197.27 2358.53 1197.27C2367.98 1197.27 2375.44 1199.26 2380.89 1203.23C2386.35 1207.17 2389.36 1212.59 2389.94 1219.5ZM2435.2 1269.32C2427.84 1269.32 2421.52 1267.8 2416.24 1264.77C2411 1261.74 2406.97 1257.53 2404.15 1252.14C2401.34 1246.71 2399.93 1240.44 2399.93 1233.32C2399.93 1226.17 2401.34 1219.89 2404.15 1214.5C2407 1209.08 2411.05 1204.85 2416.29 1201.82C2421.56 1198.79 2427.85 1197.27 2435.15 1197.27C2441.61 1197.27 2447.23 1198.44 2452.02 1200.77C2456.84 1203.11 2460.59 1206.41 2463.29 1210.68C2466.02 1214.92 2467.46 1219.91 2467.61 1225.64H2446.84C2446.41 1222.06 2445.2 1219.26 2443.2 1217.23C2441.23 1215.2 2438.65 1214.18 2435.47 1214.18C2432.9 1214.18 2430.64 1214.91 2428.7 1216.36C2426.76 1217.79 2425.24 1219.91 2424.15 1222.73C2423.09 1225.52 2422.56 1228.97 2422.56 1233.09C2422.56 1237.21 2423.09 1240.7 2424.15 1243.55C2425.24 1246.36 2426.76 1248.5 2428.7 1249.95C2430.64 1251.38 2432.9 1252.09 2435.47 1252.09C2437.53 1252.09 2439.35 1251.65 2440.93 1250.77C2442.53 1249.89 2443.85 1248.61 2444.88 1246.91C2445.91 1245.18 2446.56 1243.09 2446.84 1240.64H2467.61C2467.4 1246.39 2465.96 1251.42 2463.29 1255.73C2460.65 1260.03 2456.94 1263.38 2452.15 1265.77C2447.4 1268.14 2441.74 1269.32 2435.2 1269.32ZM2511.57 1269.32C2504.24 1269.32 2497.94 1267.82 2492.66 1264.82C2487.42 1261.79 2483.38 1257.58 2480.53 1252.18C2477.71 1246.76 2476.3 1240.47 2476.3 1233.32C2476.3 1226.14 2477.71 1219.85 2480.53 1214.45C2483.38 1209.03 2487.42 1204.82 2492.66 1201.82C2497.94 1198.79 2504.24 1197.27 2511.57 1197.27C2518.91 1197.27 2525.2 1198.79 2530.44 1201.82C2535.71 1204.82 2539.76 1209.03 2542.57 1214.45C2545.42 1219.85 2546.85 1226.14 2546.85 1233.32C2546.85 1240.47 2545.42 1246.76 2542.57 1252.18C2539.76 1257.58 2535.71 1261.79 2530.44 1264.82C2525.2 1267.82 2518.91 1269.32 2511.57 1269.32ZM2511.71 1252.55C2514.38 1252.55 2516.63 1251.73 2518.48 1250.09C2520.33 1248.45 2521.74 1246.18 2522.71 1243.27C2523.71 1240.36 2524.21 1237 2524.21 1233.18C2524.21 1229.3 2523.71 1225.91 2522.71 1223C2521.74 1220.09 2520.33 1217.82 2518.48 1216.18C2516.63 1214.55 2514.38 1213.73 2511.71 1213.73C2508.95 1213.73 2506.62 1214.55 2504.71 1216.18C2502.83 1217.82 2501.39 1220.09 2500.39 1223C2499.42 1225.91 2498.94 1229.3 2498.94 1233.18C2498.94 1237 2499.42 1240.36 2500.39 1243.27C2501.39 1246.18 2502.83 1248.45 2504.71 1250.09C2506.62 1251.73 2508.95 1252.55 2511.71 1252.55ZM2558.23 1268V1198.18H2579.82V1210.91H2580.55C2581.82 1206.3 2583.9 1202.88 2586.78 1200.64C2589.66 1198.36 2593.01 1197.23 2596.82 1197.23C2597.85 1197.23 2598.91 1197.3 2600.01 1197.45C2601.1 1197.58 2602.11 1197.77 2603.05 1198.05V1217.36C2601.99 1217 2600.6 1216.71 2598.87 1216.5C2597.17 1216.29 2595.66 1216.18 2594.32 1216.18C2591.69 1216.18 2589.31 1216.77 2587.19 1217.95C2585.1 1219.11 2583.45 1220.73 2582.23 1222.82C2581.05 1224.88 2580.46 1227.3 2580.46 1230.09V1268H2558.23ZM2633.98 1269C2628.83 1269 2624.15 1267.67 2619.94 1265C2615.73 1262.33 2612.36 1258.33 2609.85 1253C2607.33 1247.67 2606.07 1241.05 2606.07 1233.14C2606.07 1224.92 2607.38 1218.17 2609.98 1212.86C2612.59 1207.56 2616 1203.64 2620.21 1201.09C2624.45 1198.55 2629.01 1197.27 2633.89 1197.27C2637.56 1197.27 2640.7 1197.91 2643.3 1199.18C2645.91 1200.42 2648.06 1202.03 2649.76 1204C2651.45 1205.97 2652.74 1208.02 2653.62 1210.14H2654.07V1174.91H2676.3V1268H2654.3V1256.68H2653.62C2652.68 1258.83 2651.35 1260.85 2649.62 1262.73C2647.89 1264.61 2645.73 1266.12 2643.12 1267.27C2640.54 1268.42 2637.5 1269 2633.98 1269ZM2641.71 1251.68C2644.41 1251.68 2646.71 1250.92 2648.62 1249.41C2650.53 1247.86 2652 1245.7 2653.03 1242.91C2654.06 1240.12 2654.57 1236.85 2654.57 1233.09C2654.57 1229.27 2654.06 1225.98 2653.03 1223.23C2652.03 1220.47 2650.56 1218.35 2648.62 1216.86C2646.71 1215.38 2644.41 1214.64 2641.71 1214.64C2638.95 1214.64 2636.62 1215.39 2634.71 1216.91C2632.8 1218.42 2631.35 1220.56 2630.35 1223.32C2629.38 1226.08 2628.89 1229.33 2628.89 1233.09C2628.89 1236.85 2629.39 1240.12 2630.39 1242.91C2631.39 1245.7 2632.83 1247.86 2634.71 1249.41C2636.62 1250.92 2638.95 1251.68 2641.71 1251.68ZM1669.52 1353.18V1369.55H1625.47V1353.18H1669.52ZM1634.7 1336.45H1656.93V1401.05C1656.93 1402.41 1657.14 1403.52 1657.56 1404.36C1658.02 1405.18 1658.67 1405.77 1659.52 1406.14C1660.37 1406.47 1661.38 1406.64 1662.56 1406.64C1663.41 1406.64 1664.3 1406.56 1665.24 1406.41C1666.21 1406.23 1666.94 1406.08 1667.43 1405.95L1670.79 1422C1669.73 1422.3 1668.23 1422.68 1666.29 1423.14C1664.38 1423.59 1662.09 1423.88 1659.43 1424C1654.21 1424.24 1649.74 1423.64 1646.02 1422.18C1642.32 1420.7 1639.49 1418.39 1637.52 1415.27C1635.58 1412.15 1634.64 1408.23 1634.7 1403.5V1336.45ZM1712.7 1424.32C1705.37 1424.32 1699.06 1422.82 1693.79 1419.82C1688.55 1416.79 1684.5 1412.58 1681.65 1407.18C1678.84 1401.76 1677.43 1395.47 1677.43 1388.32C1677.43 1381.14 1678.84 1374.85 1681.65 1369.45C1684.5 1364.03 1688.55 1359.82 1693.79 1356.82C1699.06 1353.79 1705.37 1352.27 1712.7 1352.27C1720.03 1352.27 1726.32 1353.79 1731.56 1356.82C1736.84 1359.82 1740.88 1364.03 1743.7 1369.45C1746.55 1374.85 1747.97 1381.14 1747.97 1388.32C1747.97 1395.47 1746.55 1401.76 1743.7 1407.18C1740.88 1412.58 1736.84 1416.79 1731.56 1419.82C1726.32 1422.82 1720.03 1424.32 1712.7 1424.32ZM1712.84 1407.55C1715.5 1407.55 1717.76 1406.73 1719.61 1405.09C1721.46 1403.45 1722.87 1401.18 1723.84 1398.27C1724.84 1395.36 1725.34 1392 1725.34 1388.18C1725.34 1384.3 1724.84 1380.91 1723.84 1378C1722.87 1375.09 1721.46 1372.82 1719.61 1371.18C1717.76 1369.55 1715.5 1368.73 1712.84 1368.73C1710.08 1368.73 1707.74 1369.55 1705.84 1371.18C1703.96 1372.82 1702.52 1375.09 1701.52 1378C1700.55 1380.91 1700.06 1384.3 1700.06 1388.18C1700.06 1392 1700.55 1395.36 1701.52 1398.27C1702.52 1401.18 1703.96 1403.45 1705.84 1405.09C1707.74 1406.73 1710.08 1407.55 1712.84 1407.55ZM1847.81 1374.5L1827.4 1375.05C1827.19 1373.59 1826.62 1372.3 1825.68 1371.18C1824.74 1370.03 1823.51 1369.14 1821.99 1368.5C1820.51 1367.83 1818.78 1367.5 1816.81 1367.5C1814.24 1367.5 1812.04 1368.02 1810.22 1369.05C1808.43 1370.08 1807.55 1371.47 1807.59 1373.23C1807.55 1374.59 1808.1 1375.77 1809.22 1376.77C1810.37 1377.77 1812.42 1378.58 1815.36 1379.18L1828.81 1381.73C1835.78 1383.06 1840.96 1385.27 1844.36 1388.36C1847.78 1391.45 1849.51 1395.55 1849.54 1400.64C1849.51 1405.42 1848.09 1409.59 1845.27 1413.14C1842.48 1416.68 1838.66 1419.44 1833.81 1421.41C1828.96 1423.35 1823.42 1424.32 1817.18 1424.32C1807.21 1424.32 1799.34 1422.27 1793.59 1418.18C1787.86 1414.06 1784.59 1408.55 1783.77 1401.64L1805.72 1401.09C1806.21 1403.64 1807.46 1405.58 1809.49 1406.91C1811.52 1408.24 1814.12 1408.91 1817.27 1408.91C1820.12 1408.91 1822.43 1408.38 1824.22 1407.32C1826.01 1406.26 1826.92 1404.85 1826.95 1403.09C1826.92 1401.52 1826.22 1400.26 1824.86 1399.32C1823.49 1398.35 1821.36 1397.59 1818.45 1397.05L1806.27 1394.73C1799.27 1393.45 1794.05 1391.11 1790.63 1387.68C1787.21 1384.23 1785.51 1379.83 1785.54 1374.5C1785.51 1369.83 1786.75 1365.85 1789.27 1362.55C1791.78 1359.21 1795.36 1356.67 1799.99 1354.91C1804.63 1353.15 1810.1 1352.27 1816.4 1352.27C1825.86 1352.27 1833.31 1354.26 1838.77 1358.23C1844.22 1362.17 1847.24 1367.59 1847.81 1374.5ZM1899.89 1353.18V1369.55H1855.85V1353.18H1899.89ZM1865.07 1336.45H1887.3V1401.05C1887.3 1402.41 1887.51 1403.52 1887.94 1404.36C1888.39 1405.18 1889.04 1405.77 1889.89 1406.14C1890.74 1406.47 1891.76 1406.64 1892.94 1406.64C1893.79 1406.64 1894.68 1406.56 1895.62 1406.41C1896.59 1406.23 1897.32 1406.08 1897.8 1405.95L1901.16 1422C1900.1 1422.3 1898.6 1422.68 1896.66 1423.14C1894.76 1423.59 1892.47 1423.88 1889.8 1424C1884.59 1424.24 1880.12 1423.64 1876.39 1422.18C1872.7 1420.7 1869.86 1418.39 1867.89 1415.27C1865.95 1412.15 1865.01 1408.23 1865.07 1403.5V1336.45ZM1930.91 1424.18C1926.46 1424.18 1922.51 1423.44 1919.05 1421.95C1915.63 1420.44 1912.91 1418.17 1910.91 1415.14C1908.95 1412.08 1907.96 1408.24 1907.96 1403.64C1907.96 1399.76 1908.64 1396.48 1910.01 1393.82C1911.37 1391.15 1913.25 1388.98 1915.64 1387.32C1918.04 1385.65 1920.79 1384.39 1923.91 1383.55C1927.04 1382.67 1930.37 1382.08 1933.91 1381.77C1937.88 1381.41 1941.08 1381.03 1943.51 1380.64C1945.93 1380.21 1947.69 1379.62 1948.78 1378.86C1949.9 1378.08 1950.46 1376.97 1950.46 1375.55V1375.32C1950.46 1372.98 1949.66 1371.18 1948.05 1369.91C1946.45 1368.64 1944.28 1368 1941.55 1368C1938.61 1368 1936.25 1368.64 1934.46 1369.91C1932.67 1371.18 1931.54 1372.94 1931.05 1375.18L1910.55 1374.45C1911.16 1370.21 1912.72 1366.42 1915.23 1363.09C1917.78 1359.73 1921.26 1357.09 1925.69 1355.18C1930.14 1353.24 1935.49 1352.27 1941.73 1352.27C1946.19 1352.27 1950.29 1352.8 1954.05 1353.86C1957.81 1354.89 1961.08 1356.41 1963.87 1358.41C1966.66 1360.38 1968.81 1362.8 1970.32 1365.68C1971.87 1368.56 1972.64 1371.85 1972.64 1375.55V1423H1951.73V1413.27H1951.19C1949.95 1415.64 1948.35 1417.64 1946.41 1419.27C1944.51 1420.91 1942.25 1422.14 1939.64 1422.95C1937.07 1423.77 1934.16 1424.18 1930.91 1424.18ZM1937.78 1409.64C1940.17 1409.64 1942.32 1409.15 1944.23 1408.18C1946.17 1407.21 1947.72 1405.88 1948.87 1404.18C1950.02 1402.45 1950.6 1400.45 1950.6 1398.18V1391.55C1949.96 1391.88 1949.19 1392.18 1948.28 1392.45C1947.4 1392.73 1946.43 1392.98 1945.37 1393.23C1944.31 1393.47 1943.22 1393.68 1942.1 1393.86C1940.98 1394.05 1939.9 1394.21 1938.87 1394.36C1936.78 1394.7 1934.99 1395.21 1933.51 1395.91C1932.05 1396.61 1930.93 1397.52 1930.14 1398.64C1929.38 1399.73 1929.01 1401.03 1929.01 1402.55C1929.01 1404.85 1929.82 1406.61 1931.46 1407.82C1933.13 1409.03 1935.23 1409.64 1937.78 1409.64ZM1997.32 1449.18C1994.66 1449.18 1992.14 1448.97 1989.78 1448.55C1987.41 1448.15 1985.38 1447.62 1983.69 1446.95L1988.6 1430.82C1990.78 1431.55 1992.75 1431.97 1994.51 1432.09C1996.29 1432.21 1997.82 1431.92 1999.1 1431.23C2000.4 1430.56 2001.4 1429.36 2002.1 1427.64L2002.96 1425.55L1978.14 1353.18H2001.41L2014.28 1403H2015.01L2028.05 1353.18H2051.46L2025.14 1429.68C2023.87 1433.5 2022.07 1436.86 2019.73 1439.77C2017.43 1442.71 2014.45 1445.02 2010.78 1446.68C2007.14 1448.35 2002.66 1449.18 1997.32 1449.18ZM2132.53 1392.86V1353.18H2154.71V1423H2133.53V1410H2132.8C2131.26 1414.27 2128.62 1417.67 2124.89 1420.18C2121.2 1422.67 2116.73 1423.91 2111.48 1423.91C2106.73 1423.91 2102.54 1422.82 2098.94 1420.64C2095.33 1418.45 2092.53 1415.41 2090.53 1411.5C2088.53 1407.56 2087.51 1402.95 2087.48 1397.68V1353.18H2109.71V1393.32C2109.74 1397.11 2110.74 1400.09 2112.71 1402.27C2114.68 1404.45 2117.36 1405.55 2120.76 1405.55C2122.97 1405.55 2124.95 1405.06 2126.71 1404.09C2128.5 1403.09 2129.91 1401.65 2130.94 1399.77C2132 1397.86 2132.53 1395.56 2132.53 1392.86ZM2168.86 1449.18V1353.18H2190.86V1365.14H2191.54C2192.45 1363.02 2193.74 1360.97 2195.4 1359C2197.1 1357.03 2199.25 1355.42 2201.86 1354.18C2204.49 1352.91 2207.65 1352.27 2211.31 1352.27C2216.16 1352.27 2220.69 1353.55 2224.9 1356.09C2229.15 1358.64 2232.57 1362.56 2235.18 1367.86C2237.78 1373.17 2239.09 1379.92 2239.09 1388.14C2239.09 1396.05 2237.83 1402.67 2235.31 1408C2232.83 1413.33 2229.46 1417.33 2225.22 1420C2221.01 1422.67 2216.33 1424 2211.18 1424C2207.66 1424 2204.62 1423.42 2202.04 1422.27C2199.46 1421.12 2197.3 1419.61 2195.54 1417.73C2193.81 1415.85 2192.48 1413.83 2191.54 1411.68H2191.09V1449.18H2168.86ZM2190.63 1388.09C2190.63 1391.85 2191.13 1395.12 2192.13 1397.91C2193.16 1400.7 2194.63 1402.86 2196.54 1404.41C2198.48 1405.92 2200.8 1406.68 2203.49 1406.68C2206.22 1406.68 2208.54 1405.92 2210.45 1404.41C2212.36 1402.86 2213.8 1400.7 2214.77 1397.91C2215.77 1395.12 2216.27 1391.85 2216.27 1388.09C2216.27 1384.33 2215.77 1381.08 2214.77 1378.32C2213.8 1375.56 2212.36 1373.42 2210.45 1371.91C2208.57 1370.39 2206.25 1369.64 2203.49 1369.64C2200.77 1369.64 2198.45 1370.38 2196.54 1371.86C2194.63 1373.35 2193.16 1375.47 2192.13 1378.23C2191.13 1380.98 2190.63 1384.27 2190.63 1388.09ZM2317.64 1353.18V1369.55H2273.6V1353.18H2317.64ZM2282.82 1336.45H2305.05V1401.05C2305.05 1402.41 2305.26 1403.52 2305.69 1404.36C2306.14 1405.18 2306.79 1405.77 2307.64 1406.14C2308.49 1406.47 2309.51 1406.64 2310.69 1406.64C2311.54 1406.64 2312.43 1406.56 2313.37 1406.41C2314.34 1406.23 2315.07 1406.08 2315.55 1405.95L2318.91 1422C2317.85 1422.3 2316.35 1422.68 2314.41 1423.14C2312.51 1423.59 2310.22 1423.88 2307.55 1424C2302.34 1424.24 2297.87 1423.64 2294.14 1422.18C2290.45 1420.7 2287.61 1418.39 2285.64 1415.27C2283.7 1412.15 2282.76 1408.23 2282.82 1403.5V1336.45ZM2360.82 1424.32C2353.49 1424.32 2347.19 1422.82 2341.91 1419.82C2336.67 1416.79 2332.63 1412.58 2329.78 1407.18C2326.96 1401.76 2325.55 1395.47 2325.55 1388.32C2325.55 1381.14 2326.96 1374.85 2329.78 1369.45C2332.63 1364.03 2336.67 1359.82 2341.91 1356.82C2347.19 1353.79 2353.49 1352.27 2360.82 1352.27C2368.16 1352.27 2374.45 1353.79 2379.69 1356.82C2384.96 1359.82 2389.01 1364.03 2391.82 1369.45C2394.67 1374.85 2396.1 1381.14 2396.1 1388.32C2396.1 1395.47 2394.67 1401.76 2391.82 1407.18C2389.01 1412.58 2384.96 1416.79 2379.69 1419.82C2374.45 1422.82 2368.16 1424.32 2360.82 1424.32ZM2360.96 1407.55C2363.63 1407.55 2365.88 1406.73 2367.73 1405.09C2369.58 1403.45 2370.99 1401.18 2371.96 1398.27C2372.96 1395.36 2373.46 1392 2373.46 1388.18C2373.46 1384.3 2372.96 1380.91 2371.96 1378C2370.99 1375.09 2369.58 1372.82 2367.73 1371.18C2365.88 1369.55 2363.63 1368.73 2360.96 1368.73C2358.2 1368.73 2355.87 1369.55 2353.96 1371.18C2352.08 1372.82 2350.64 1375.09 2349.64 1378C2348.67 1380.91 2348.19 1384.3 2348.19 1388.18C2348.19 1392 2348.67 1395.36 2349.64 1398.27C2350.64 1401.18 2352.08 1403.45 2353.96 1405.09C2355.87 1406.73 2358.2 1407.55 2360.96 1407.55ZM2460.48 1424C2455.33 1424 2450.65 1422.67 2446.44 1420C2442.23 1417.33 2438.86 1413.33 2436.35 1408C2433.83 1402.67 2432.57 1396.05 2432.57 1388.14C2432.57 1379.92 2433.88 1373.17 2436.48 1367.86C2439.09 1362.56 2442.5 1358.64 2446.71 1356.09C2450.95 1353.55 2455.51 1352.27 2460.39 1352.27C2464.06 1352.27 2467.2 1352.91 2469.8 1354.18C2472.41 1355.42 2474.56 1357.03 2476.26 1359C2477.95 1360.97 2479.24 1363.02 2480.12 1365.14H2480.57V1329.91H2502.8V1423H2480.8V1411.68H2480.12C2479.18 1413.83 2477.85 1415.85 2476.12 1417.73C2474.39 1419.61 2472.23 1421.12 2469.62 1422.27C2467.04 1423.42 2464 1424 2460.48 1424ZM2468.21 1406.68C2470.91 1406.68 2473.21 1405.92 2475.12 1404.41C2477.03 1402.86 2478.5 1400.7 2479.53 1397.91C2480.56 1395.12 2481.07 1391.85 2481.07 1388.09C2481.07 1384.27 2480.56 1380.98 2479.53 1378.23C2478.53 1375.47 2477.06 1373.35 2475.12 1371.86C2473.21 1370.38 2470.91 1369.64 2468.21 1369.64C2465.45 1369.64 2463.12 1370.39 2461.21 1371.91C2459.3 1373.42 2457.85 1375.56 2456.85 1378.32C2455.88 1381.08 2455.39 1384.33 2455.39 1388.09C2455.39 1391.85 2455.89 1395.12 2456.89 1397.91C2457.89 1400.7 2459.33 1402.86 2461.21 1404.41C2463.12 1405.92 2465.45 1406.68 2468.21 1406.68ZM2536.54 1424.18C2532.09 1424.18 2528.13 1423.44 2524.68 1421.95C2521.25 1420.44 2518.54 1418.17 2516.54 1415.14C2514.57 1412.08 2513.59 1408.24 2513.59 1403.64C2513.59 1399.76 2514.27 1396.48 2515.63 1393.82C2516.99 1391.15 2518.87 1388.98 2521.27 1387.32C2523.66 1385.65 2526.42 1384.39 2529.54 1383.55C2532.66 1382.67 2535.99 1382.08 2539.54 1381.77C2543.51 1381.41 2546.71 1381.03 2549.13 1380.64C2551.55 1380.21 2553.31 1379.62 2554.4 1378.86C2555.52 1378.08 2556.09 1376.97 2556.09 1375.55V1375.32C2556.09 1372.98 2555.28 1371.18 2553.68 1369.91C2552.07 1368.64 2549.9 1368 2547.18 1368C2544.24 1368 2541.87 1368.64 2540.09 1369.91C2538.3 1371.18 2537.16 1372.94 2536.68 1375.18L2516.18 1374.45C2516.78 1370.21 2518.34 1366.42 2520.86 1363.09C2523.4 1359.73 2526.89 1357.09 2531.31 1355.18C2535.77 1353.24 2541.12 1352.27 2547.36 1352.27C2551.81 1352.27 2555.92 1352.8 2559.68 1353.86C2563.43 1354.89 2566.71 1356.41 2569.49 1358.41C2572.28 1360.38 2574.43 1362.8 2575.95 1365.68C2577.49 1368.56 2578.27 1371.85 2578.27 1375.55V1423H2557.36V1413.27H2556.81C2555.57 1415.64 2553.98 1417.64 2552.04 1419.27C2550.13 1420.91 2547.87 1422.14 2545.27 1422.95C2542.69 1423.77 2539.78 1424.18 2536.54 1424.18ZM2543.4 1409.64C2545.8 1409.64 2547.95 1409.15 2549.86 1408.18C2551.8 1407.21 2553.34 1405.88 2554.49 1404.18C2555.65 1402.45 2556.22 1400.45 2556.22 1398.18V1391.55C2555.59 1391.88 2554.81 1392.18 2553.9 1392.45C2553.02 1392.73 2552.05 1392.98 2550.99 1393.23C2549.93 1393.47 2548.84 1393.68 2547.72 1393.86C2546.6 1394.05 2545.52 1394.21 2544.49 1394.36C2542.4 1394.7 2540.62 1395.21 2539.13 1395.91C2537.68 1396.61 2536.55 1397.52 2535.77 1398.64C2535.01 1399.73 2534.63 1401.03 2534.63 1402.55C2534.63 1404.85 2535.45 1406.61 2537.09 1407.82C2538.75 1409.03 2540.86 1409.64 2543.4 1409.64ZM2631.27 1353.18V1369.55H2587.22V1353.18H2631.27ZM2596.45 1336.45H2618.68V1401.05C2618.68 1402.41 2618.89 1403.52 2619.31 1404.36C2619.77 1405.18 2620.42 1405.77 2621.27 1406.14C2622.12 1406.47 2623.13 1406.64 2624.31 1406.64C2625.16 1406.64 2626.05 1406.56 2626.99 1406.41C2627.96 1406.23 2628.69 1406.08 2629.18 1405.95L2632.54 1422C2631.48 1422.3 2629.98 1422.68 2628.04 1423.14C2626.13 1423.59 2623.84 1423.88 2621.18 1424C2615.96 1424.24 2611.49 1423.64 2607.77 1422.18C2604.07 1420.7 2601.24 1418.39 2599.27 1415.27C2597.33 1412.15 2596.39 1408.23 2596.45 1403.5V1336.45ZM2674.49 1424.32C2667.19 1424.32 2660.89 1422.88 2655.59 1420C2650.31 1417.09 2646.25 1412.95 2643.4 1407.59C2640.59 1402.2 2639.18 1395.79 2639.18 1388.36C2639.18 1381.15 2640.6 1374.85 2643.45 1369.45C2646.3 1364.03 2650.31 1359.82 2655.49 1356.82C2660.68 1353.79 2666.78 1352.27 2673.81 1352.27C2678.78 1352.27 2683.33 1353.05 2687.45 1354.59C2691.57 1356.14 2695.13 1358.42 2698.13 1361.45C2701.13 1364.48 2703.46 1368.23 2705.13 1372.68C2706.8 1377.11 2707.63 1382.18 2707.63 1387.91V1393.45H2646.95V1380.55H2686.95C2686.92 1378.18 2686.36 1376.08 2685.27 1374.23C2684.18 1372.38 2682.68 1370.94 2680.77 1369.91C2678.89 1368.85 2676.72 1368.32 2674.27 1368.32C2671.78 1368.32 2669.55 1368.88 2667.59 1370C2665.62 1371.09 2664.05 1372.59 2662.9 1374.5C2661.75 1376.38 2661.15 1378.52 2661.09 1380.91V1394.05C2661.09 1396.89 2661.65 1399.39 2662.77 1401.55C2663.89 1403.67 2665.48 1405.32 2667.54 1406.5C2669.6 1407.68 2672.05 1408.27 2674.9 1408.27C2676.87 1408.27 2678.66 1408 2680.27 1407.45C2681.87 1406.91 2683.25 1406.11 2684.4 1405.05C2685.55 1403.98 2686.42 1402.68 2686.99 1401.14L2707.4 1401.73C2706.55 1406.3 2704.69 1410.29 2701.81 1413.68C2698.96 1417.05 2695.22 1419.67 2690.59 1421.55C2685.95 1423.39 2680.59 1424.32 2674.49 1424.32Z" fill="white"/>
<mask id="mask0_25_39" style="mask-type:alpha" maskUnits="userSpaceOnUse" x="0" y="0" width="4335" height="1975">
<rect width="4335" height="1975" fill="#0B1518"/>
</mask>
<g mask="url(#mask0_25_39)">
<rect x="1135.3" y="-275.068" width="195" height="2151.95" transform="rotate(40 1135.3 -275.068)" fill="#202E43"/>
<rect x="3324.74" y="2282.62" width="195" height="2151.95" transform="rotate(-145 3324.74 2282.62)" fill="#202E43"/>
<rect x="1813.75" y="-396" width="195" height="3159.28" transform="rotate(40 1813.75 -396)" fill="#202E43"/>
<rect x="2754.73" y="2379.78" width="195" height="3159.28" transform="rotate(-145 2754.73 2379.78)" fill="#202E43"/>
<rect x="518.35" y="-199" width="195" height="1144" transform="rotate(40 518.35 -199)" fill="#202E43"/>
<rect x="3897.74" y="2204.96" width="195" height="1144" transform="rotate(-145 3897.74 2204.96)" fill="#202E43"/>
</g>
</svg>
